<?xml version="1.0" encoding="UTF-8"?>
<svg id="Layer_1" xmlns="http://www.w3.org/2000/svg" width="100" height="100" version="1.1" viewBox="0 0 100 100"  >
  <!-- Generator: Adobe Illustrator 30.1.0, SVG Export Plug-In . SVG Version: 2.1.1 Build 136)  -->
  <rect x="25.0000025" y="25.0000025" width="50.000005" height="50.000005"/>
  <path d="M50.0000108,25.0000054h-25.0000054v24.9999839c13.8071259,0,25.0000054-11.1928795,25.0000054-24.9999839Z" fill="#fff"/>
  <path d="M75.0000161,49.9999892v-24.9999839h-25.0000054c0,13.8071043,11.1928795,24.9999839,25.0000054,24.9999839Z" fill="#fff"/>
  <path d="M50.0000108,74.9999946h25.0000054v-25.0000054c-13.8071259,0-25.0000054,11.192901-25.0000054,25.0000054Z" fill="#fff"/>
  <path d="M50.0000108,74.9999946c0-13.8071043-11.1928795-25.0000054-25.0000054-25.0000054v25.0000054h25.0000054Z" fill="#fff"/>
  <path d="M0,25.0000054c0,13.8071043,11.1928795,24.9999839,25.0000054,24.9999839v-24.9999839H0Z" fill="#00aeef"/>
  <path d="M75.0000161,0c-13.8071259,0-25.0000054,11.1928795-25.0000054,25.0000054h25.0000054V0Z" fill="#00aeef"/>
  <path d="M75.0000161,49.9999892v25.0000054h24.9999839c0-13.8071043-11.1928795-25.0000054-24.9999839-25.0000054Z" fill="#00aeef"/>
  <path d="M25.0000054,74.9999946v25.0000054c13.8071259,0,25.0000054-11.192858,25.0000054-24.9999839v-.0000215h-25.0000054Z" fill="#00aeef"/>
  <path d="M50.0000108,25.0000054C50.0000108,11.1928795,38.8071313,0,25.0000054,0S0,11.1928795,0,25.0000054h50.0000108Z"/>
  <path d="M75.0000161,49.9999892c13.8071043,0,24.9999839-11.1928795,24.9999839-24.9999839,0-13.8071259-11.1928795-25.0000054-24.9999839-25.0000054v49.9999892Z"/>
  <path d="M50.0000108,74.9999946v.0000215c0,13.8071259,11.1928795,24.9999839,25.0000054,24.9999839,13.8071043,0,24.9999839-11.1928795,24.9999839-25.0000054h-49.9999892Z"/>
  <path d="M25.0000054,74.9999946v-25.0000054c-13.8071259,0-25.0000054,11.192901-25.0000054,25.0000054,0,13.8071259,11.1928795,25.0000054,25.0000054,25.0000054v-25.0000054Z"/>
</svg>  